<?xml version="1.0" standalone="no"?>
<!DOCTYPE svg PUBLIC "-//W3C//DTD SVG 1.1//EN" "http://www.w3.org/Graphics/SVG/1.1/DTD/svg11.dtd">
<svg version="1.1" xmlns="http://www.w3.org/2000/svg" viewBox="0 0 1623.6840468580901 833.8890144231341" width="1623.6840468580901" height="833.8890144231341"><!-- svg-source:excalidraw --><metadata></metadata><defs><style class="style-fonts">
      </style></defs><rect x="0" y="0" width="1623.6840468580901" height="833.8890144231341" fill="#FFFFFF"></rect><g stroke-opacity="0.3" fill-opacity="0.3" stroke-linecap="round" transform="translate(10.813904695289057 10) rotate(0 105 390)"><path d="M32 0 C68.89 0, 105.78 0, 178 0 C199.33 0, 210 10.67, 210 32 C210 179.7, 210 327.39, 210 748 C210 769.33, 199.33 780, 178 780 C148.37 780, 118.73 780, 32 780 C10.67 780, 0 769.33, 0 748 C0 585.64, 0 423.28, 0 32 C0 10.67, 10.67 0, 32 0" stroke="none" stroke-width="0" fill="#F9FAFB"></path><path d="M32 0 C82.91 0, 133.82 0, 178 0 M178 0 C199.33 0, 210 10.67, 210 32 M210 32 C210 258.98, 210 485.97, 210 748 M210 748 C210 769.33, 199.33 780, 178 780 M178 780 C146.7 780, 115.39 780, 32 780 M32 780 C10.67 780, 0 769.33, 0 748 M0 748 C0 601.07, 0 454.14, 0 32 M0 32 C0 10.67, 10.67 0, 32 0" stroke="#1F2937" stroke-width="2.5" fill="none" stroke-dasharray="8 10"></path></g><g transform="translate(26.813904695289057 22) rotate(0 89 8.125)"><text x="0" y="11.63525390625" font-family="Helvetica, sans-serif, Segoe UI Emoji" font-size="13px" fill="#1F2937" text-anchor="start" style="white-space: pre;" direction="ltr" dominant-baseline="alphabetic">Mobile App</text></g><g stroke-opacity="0.3" fill-opacity="0.3" stroke-linecap="round" transform="translate(240.81390469528907 10) rotate(0 230 390)"><path d="M32 0 C183.18 0, 334.37 0, 428 0 C449.33 0, 460 10.67, 460 32 C460 247.12, 460 462.23, 460 748 C460 769.33, 449.33 780, 428 780 C338.52 780, 249.04 780, 32 780 C10.67 780, 0 769.33, 0 748 C0 557.65, 0 367.3, 0 32 C0 10.67, 10.67 0, 32 0" stroke="none" stroke-width="0" fill="#EFF6FF"></path><path d="M32 0 C170.13 0, 308.25 0, 428 0 M428 0 C449.33 0, 460 10.67, 460 32 M460 32 C460 293.63, 460 555.26, 460 748 M460 748 C460 769.33, 449.33 780, 428 780 M428 780 C276.74 780, 125.49 780, 32 780 M32 780 C10.67 780, 0 769.33, 0 748 M0 748 C0 575.07, 0 402.15, 0 32 M0 32 C0 10.67, 10.67 0, 32 0" stroke="#2563EB" stroke-width="2.5" fill="none" stroke-dasharray="8 10"></path></g><g transform="translate(256.81390469528907 22) rotate(0 214 8.125)"><text x="0" y="11.63525390625" font-family="Helvetica, sans-serif, Segoe UI Emoji" font-size="13px" fill="#2563EB" text-anchor="start" style="white-space: pre;" direction="ltr" dominant-baseline="alphabetic">Health Cloud</text></g><g stroke-opacity="0.3" fill-opacity="0.3" stroke-linecap="round" transform="translate(720.813904695289 10) rotate(0 240 390)"><path d="M32 0 C161.33 0, 290.67 0, 448 0 C469.33 0, 480 10.67, 480 32 C480 314.54, 480 597.08, 480 748 C480 769.33, 469.33 780, 448 780 C344.43 780, 240.87 780, 32 780 C10.67 780, 0 769.33, 0 748 C0 529.66, 0 311.32, 0 32 C0 10.67, 10.67 0, 32 0" stroke="none" stroke-width="0" fill="#F5F3FF"></path><path d="M32 0 C177.14 0, 322.28 0, 448 0 M448 0 C469.33 0, 480 10.67, 480 32 M480 32 C480 185.08, 480 338.16, 480 748 M480 748 C480 769.33, 469.33 780, 448 780 M448 780 C302.61 780, 157.21 780, 32 780 M32 780 C10.67 780, 0 769.33, 0 748 M0 748 C0 549.07, 0 350.15, 0 32 M0 32 C0 10.67, 10.67 0, 32 0" stroke="#7C3AED" stroke-width="2.5" fill="none" stroke-dasharray="8 10"></path></g><g transform="translate(736.813904695289 22) rotate(0 224 8.125)"><text x="0" y="11.63525390625" font-family="Helvetica, sans-serif, Segoe UI Emoji" font-size="13px" fill="#7C3AED" text-anchor="start" style="white-space: pre;" direction="ltr" dominant-baseline="alphabetic">Data Cloud</text></g><g stroke-opacity="0.3" fill-opacity="0.3" stroke-linecap="round" transform="translate(1220.813904695289 10) rotate(0 130 190)"><path d="M32 0 C79.04 0, 126.09 0, 228 0 C249.33 0, 260 10.67, 260 32 C260 123.25, 260 214.5, 260 348 C260 369.33, 249.33 380, 228 380 C174.7 380, 121.39 380, 32 380 C10.67 380, 0 369.33, 0 348 C0 239.28, 0 130.57, 0 32 C0 10.67, 10.67 0, 32 0" stroke="none" stroke-width="0" fill="#ECFDF5"></path><path d="M32 0 C100.4 0, 168.8 0, 228 0 M228 0 C249.33 0, 260 10.67, 260 32 M260 32 C260 114.85, 260 197.7, 260 348 M260 348 C260 369.33, 249.33 380, 228 380 M228 380 C165.86 380, 103.71 380, 32 380 M32 380 C10.67 380, 0 369.33, 0 348 M0 348 C0 248.73, 0 149.46, 0 32 M0 32 C0 10.67, 10.67 0, 32 0" stroke="#059669" stroke-width="2.5" fill="none" stroke-dasharray="8 10"></path></g><g transform="translate(1236.813904695289 22) rotate(0 114 8.125)"><text x="0" y="11.63525390625" font-family="Helvetica, sans-serif, Segoe UI Emoji" font-size="13px" fill="#059669" text-anchor="start" style="white-space: pre;" direction="ltr" dominant-baseline="alphabetic">MC Next (P13n)</text></g><g stroke-opacity="0.3" fill-opacity="0.3" stroke-linecap="round" transform="translate(1220.813904695289 410) rotate(0 130 190)"><path d="M32 0 C104.35 0, 176.7 0, 228 0 C249.33 0, 260 10.67, 260 32 C260 153.01, 260 274.02, 260 348 C260 369.33, 249.33 380, 228 380 C170.19 380, 112.38 380, 32 380 C10.67 380, 0 369.33, 0 348 C0 226.93, 0 105.86, 0 32 C0 10.67, 10.67 0, 32 0" stroke="none" stroke-width="0" fill="#FEF3C7"></path><path d="M32 0 C100.42 0, 168.84 0, 228 0 M228 0 C249.33 0, 260 10.67, 260 32 M260 32 C260 130.14, 260 228.28, 260 348 M260 348 C260 369.33, 249.33 380, 228 380 M228 380 C172.22 380, 116.44 380, 32 380 M32 380 C10.67 380, 0 369.33, 0 348 M0 348 C0 237.26, 0 126.52, 0 32 M0 32 C0 10.67, 10.67 0, 32 0" stroke="#D97706" stroke-width="2.5" fill="none" stroke-dasharray="8 10"></path></g><g transform="translate(1236.813904695289 422) rotate(0 114 8.125)"><text x="0" y="11.63525390625" font-family="Helvetica, sans-serif, Segoe UI Emoji" font-size="13px" fill="#D97706" text-anchor="start" style="white-space: pre;" direction="ltr" dominant-baseline="alphabetic">Agentforce</text></g><g stroke-linecap="round" transform="translate(30.813904695289057 65) rotate(0 85 18)"><path d="M9 0 C67.34 0, 125.67 0, 161 0 C167 0, 170 3, 170 9 C170 16.15, 170 23.3, 170 27 C170 33, 167 36, 161 36 C106.19 36, 51.37 36, 9 36 C3 36, 0 33, 0 27 C0 23.22, 0 19.45, 0 9 C0 3, 3 0, 9 0" stroke="none" stroke-width="0" fill="#F3F4F6"></path><path d="M9 0 C62.08 0, 115.15 0, 161 0 M9 0 C40.63 0, 72.26 0, 161 0 M161 0 C167 0, 170 3, 170 9 M161 0 C167 0, 170 3, 170 9 M170 9 C170 13.54, 170 18.08, 170 27 M170 9 C170 13.24, 170 17.49, 170 27 M170 27 C170 33, 167 36, 161 36 M170 27 C170 33, 167 36, 161 36 M161 36 C115.66 36, 70.33 36, 9 36 M161 36 C119.81 36, 78.61 36, 9 36 M9 36 C3 36, 0 33, 0 27 M9 36 C3 36, 0 33, 0 27 M0 27 C0 21.28, 0 15.55, 0 9 M0 27 C0 20.53, 0 14.07, 0 9 M0 9 C0 3, 3 0, 9 0 M0 9 C0 3, 3 0, 9 0" stroke="#374151" stroke-width="2" fill="none"></path></g><g transform="translate(30.813904695289057 76.18) rotate(0 85 6.875)"><text x="85" y="9.84521484375" font-family="Helvetica, sans-serif, Segoe UI Emoji" font-size="11px" fill="#1E293B" text-anchor="middle" style="white-space: pre;" direction="ltr" dominant-baseline="alphabetic">NRS Check-in</text></g><g stroke-linecap="round" transform="translate(30.813904695289057 120) rotate(0 85 18)"><path d="M9 0 C49.06 0, 89.13 0, 161 0 C167 0, 170 3, 170 9 C170 15.34, 170 21.68, 170 27 C170 33, 167 36, 161 36 C122.01 36, 83.02 36, 9 36 C3 36, 0 33, 0 27 C0 23.13, 0 19.25, 0 9 C0 3, 3 0, 9 0" stroke="none" stroke-width="0" fill="#F3F4F6"></path><path d="M9 0 C62.08 0, 115.17 0, 161 0 M9 0 C41.83 0, 74.67 0, 161 0 M161 0 C167 0, 170 3, 170 9 M161 0 C167 0, 170 3, 170 9 M170 9 C170 14.35, 170 19.7, 170 27 M170 9 C170 14.2, 170 19.41, 170 27 M170 27 C170 33, 167 36, 161 36 M170 27 C170 33, 167 36, 161 36 M161 36 C112.71 36, 64.42 36, 9 36 M161 36 C116.54 36, 72.08 36, 9 36 M9 36 C3 36, 0 33, 0 27 M9 36 C3 36, 0 33, 0 27 M0 27 C0 21, 0 15, 0 9 M0 27 C0 22.88, 0 18.76, 0 9 M0 9 C0 3, 3 0, 9 0 M0 9 C0 3, 3 0, 9 0" stroke="#374151" stroke-width="2" fill="none"></path></g><g transform="translate(30.813904695289057 131.18) rotate(0 85 6.875)"><text x="85" y="9.84521484375" font-family="Helvetica, sans-serif, Segoe UI Emoji" font-size="11px" fill="#1E293B" text-anchor="middle" style="white-space: pre;" direction="ltr" dominant-baseline="alphabetic">PsOdisk Assessment</text></g><g stroke-linecap="round" transform="translate(30.813904695289057 175) rotate(0 85 18)"><path d="M9 0 C61.19 0, 113.38 0, 161 0 C167 0, 170 3, 170 9 C170 14.53, 170 20.06, 170 27 C170 33, 167 36, 161 36 C107.43 36, 53.86 36, 9 36 C3 36, 0 33, 0 27 C0 23.03, 0 19.06, 0 9 C0 3, 3 0, 9 0" stroke="none" stroke-width="0" fill="#F3F4F6"></path><path d="M9 0 C62.09 0, 115.19 0, 161 0 M9 0 C43.04 0, 77.08 0, 161 0 M161 0 C167 0, 170 3, 170 9 M161 0 C167 0, 170 3, 170 9 M170 9 C170 15.16, 170 21.32, 170 27 M170 9 C170 15.16, 170 21.33, 170 27 M170 27 C170 33, 167 36, 161 36 M170 27 C170 33, 167 36, 161 36 M161 36 C109.76 36, 58.52 36, 9 36 M161 36 C113.27 36, 65.55 36, 9 36 M9 36 C3 36, 0 33, 0 27 M9 36 C3 36, 0 33, 0 27 M0 27 C0 20.73, 0 14.45, 0 9 M0 27 C0 21.62, 0 16.24, 0 9 M0 9 C0 3, 3 0, 9 0 M0 9 C0 3, 3 0, 9 0" stroke="#374151" stroke-width="2" fill="none"></path></g><g transform="translate(30.813904695289057 186.18) rotate(0 85 6.875)"><text x="85" y="9.84521484375" font-family="Helvetica, sans-serif, Segoe UI Emoji" font-size="11px" fill="#1E293B" text-anchor="middle" style="white-space: pre;" direction="ltr" dominant-baseline="alphabetic">Dose Confirmation</text></g><g stroke-linecap="round" transform="translate(30.813904695289057 230) rotate(0 85 18)"><path d="M9 0 C42.92 0, 76.84 0, 161 0 C167 0, 170 3, 170 9 C170 13.72, 170 18.44, 170 27 C170 33, 167 36, 161 36 C123.25 36, 85.51 36, 9 36 C3 36, 0 33, 0 27 C0 22.93, 0 18.87, 0 9 C0 3, 3 0, 9 0" stroke="none" stroke-width="0" fill="#F3F4F6"></path><path d="M9 0 C62.1 0, 115.21 0, 161 0 M9 0 C44.24 0, 79.48 0, 161 0 M161 0 C167 0, 170 3, 170 9 M161 0 C167 0, 170 3, 170 9 M170 9 C170 15.97, 170 22.94, 170 27 M170 9 C170 16.12, 170 23.25, 170 27 M170 27 C170 33, 167 36, 161 36 M170 27 C170 33, 167 36, 161 36 M161 36 C106.81 36, 52.62 36, 9 36 M161 36 C110.01 36, 59.02 36, 9 36 M9 36 C3 36, 0 33, 0 27 M9 36 C3 36, 0 33, 0 27 M0 27 C0 20.45, 0 13.9, 0 9 M0 27 C0 20.36, 0 13.73, 0 9 M0 9 C0 3, 3 0, 9 0 M0 9 C0 3, 3 0, 9 0" stroke="#374151" stroke-width="2" fill="none"></path></g><g transform="translate(30.813904695289057 241.18) rotate(0 85 6.875)"><text x="85" y="9.84521484375" font-family="Helvetica, sans-serif, Segoe UI Emoji" font-size="11px" fill="#1E293B" text-anchor="middle" style="white-space: pre;" direction="ltr" dominant-baseline="alphabetic">Agentforce Chat</text></g><g stroke-linecap="round" transform="translate(30.813904695289057 285) rotate(0 85 18)"><path d="M9 0 C55.05 0, 101.09 0, 161 0 C167 0, 170 3, 170 9 C170 12.91, 170 16.82, 170 27 C170 33, 167 36, 161 36 C108.67 36, 56.35 36, 9 36 C3 36, 0 33, 0 27 C0 22.84, 0 18.67, 0 9 C0 3, 3 0, 9 0" stroke="none" stroke-width="0" fill="#F3F4F6"></path><path d="M9 0 C62.11 0, 115.23 0, 161 0 M9 0 C45.44 0, 81.89 0, 161 0 M161 0 C167 0, 170 3, 170 9 M161 0 C167 0, 170 3, 170 9 M170 9 C170 13.18, 170 17.36, 170 27 M170 9 C170 13.48, 170 17.96, 170 27 M170 27 C170 33, 167 36, 161 36 M170 27 C170 33, 167 36, 161 36 M161 36 C103.86 36, 46.72 36, 9 36 M161 36 C106.74 36, 52.48 36, 9 36 M9 36 C3 36, 0 33, 0 27 M9 36 C3 36, 0 33, 0 27 M0 27 C0 20.17, 0 13.35, 0 9 M0 27 C0 22.71, 0 18.41, 0 9 M0 9 C0 3, 3 0, 9 0 M0 9 C0 3, 3 0, 9 0" stroke="#374151" stroke-width="2" fill="none"></path></g><g transform="translate(30.813904695289057 296.18) rotate(0 85 6.875)"><text x="85" y="9.84521484375" font-family="Helvetica, sans-serif, Segoe UI Emoji" font-size="11px" fill="#1E293B" text-anchor="middle" style="white-space: pre;" direction="ltr" dominant-baseline="alphabetic">Education Hub</text></g><g stroke-linecap="round" transform="translate(265.81390469528907 52) rotate(0 105 22)"><path d="M11 0 C82.95 0, 154.9 0, 199 0 C206.33 0, 210 3.67, 210 11 C210 19.19, 210 27.37, 210 33 C210 40.33, 206.33 44, 199 44 C153.85 44, 108.7 44, 11 44 C3.67 44, 0 40.33, 0 33 C0 27.79, 0 22.59, 0 11 C0 3.67, 3.67 0, 11 0" stroke="none" stroke-width="0" fill="#DBEAFE"></path><path d="M11 0 C76.7 0, 142.41 0, 199 0 M11 0 C57.56 0, 104.12 0, 199 0 M199 0 C206.33 0, 210 3.67, 210 11 M199 0 C206.33 0, 210 3.67, 210 11 M210 11 C210 17.1, 210 23.2, 210 33 M210 11 C210 17.65, 210 24.3, 210 33 M210 33 C210 40.33, 206.33 44, 199 44 M210 33 C210 40.33, 206.33 44, 199 44 M199 44 C124.68 44, 50.35 44, 11 44 M199 44 C127.85 44, 56.71 44, 11 44 M11 44 C3.67 44, 0 40.33, 0 33 M11 44 C3.67 44, 0 40.33, 0 33 M0 33 C0 24.32, 0 15.64, 0 11 M0 33 C0 26.22, 0 19.43, 0 11 M0 11 C0 3.67, 3.67 0, 11 0 M0 11 C0 3.67, 3.67 0, 11 0" stroke="#3B82F6" stroke-width="2" fill="none"></path></g><g transform="translate(265.81390469528907 67.18) rotate(0 105 6.875)"><text x="105" y="9.84521484375" font-family="Helvetica, sans-serif, Segoe UI Emoji" font-size="11px" fill="#1E293B" text-anchor="middle" style="white-space: pre;" direction="ltr" dominant-baseline="alphabetic">Contact (Patient Identity)</text></g><g stroke-linecap="round" transform="translate(265.81390469528907 112) rotate(0 95 18)"><path d="M9 0 C54.15 0, 99.3 0, 181 0 C187 0, 190 3, 190 9 C190 14.89, 190 20.77, 190 27 C190 33, 187 36, 181 36 C123.2 36, 65.4 36, 9 36 C3 36, 0 33, 0 27 C0 22.64, 0 18.29, 0 9 C0 3, 3 0, 9 0" stroke="none" stroke-width="0" fill="#DBEAFE"></path><path d="M9 0 C69.12 0, 129.25 0, 181 0 M9 0 C52.96 0, 96.92 0, 181 0 M181 0 C187 0, 190 3, 190 9 M181 0 C187 0, 190 3, 190 9 M190 9 C190 14.8, 190 20.6, 190 27 M190 9 C190 15.4, 190 21.8, 190 27 M190 27 C190 33, 187 36, 181 36 M190 27 C190 33, 187 36, 181 36 M181 36 C144.06 36, 107.12 36, 9 36 M181 36 C112.21 36, 43.43 36, 9 36 M9 36 C3 36, 0 33, 0 27 M9 36 C3 36, 0 33, 0 27 M0 27 C0 23.22, 0 19.44, 0 9 M0 27 C0 20.19, 0 13.39, 0 9 M0 9 C0 3, 3 0, 9 0 M0 9 C0 3, 3 0, 9 0" stroke="#3B82F6" stroke-width="2" fill="none"></path></g><g transform="translate(265.81390469528907 123.18) rotate(0 95 6.875)"><text x="95" y="9.84521484375" font-family="Helvetica, sans-serif, Segoe UI Emoji" font-size="11px" fill="#1E293B" text-anchor="middle" style="white-space: pre;" direction="ltr" dominant-baseline="alphabetic">CareProgram Enrollment</text></g><g stroke-linecap="round" transform="translate(265.81390469528907 164) rotate(0 85 18)"><path d="M9 0 C61.03 0, 113.05 0, 161 0 C167 0, 170 3, 170 9 C170 14.08, 170 19.15, 170 27 C170 33, 167 36, 161 36 C125.74 36, 90.48 36, 9 36 C3 36, 0 33, 0 27 C0 22.55, 0 18.09, 0 9 C0 3, 3 0, 9 0" stroke="none" stroke-width="0" fill="#DBEAFE"></path><path d="M9 0 C62.14 0, 115.28 0, 161 0 M9 0 C49.05 0, 89.1 0, 161 0 M161 0 C167 0, 170 3, 170 9 M161 0 C167 0, 170 3, 170 9 M170 9 C170 15.61, 170 22.23, 170 27 M170 9 C170 12.76, 170 16.52, 170 27 M170 27 C170 33, 167 36, 161 36 M170 27 C170 33, 167 36, 161 36 M161 36 C125.41 36, 89.81 36, 9 36 M161 36 C127.35 36, 93.69 36, 9 36 M9 36 C3 36, 0 33, 0 27 M9 36 C3 36, 0 33, 0 27 M0 27 C0 22.95, 0 18.89, 0 9 M0 27 C0 22.54, 0 18.07, 0 9 M0 9 C0 3, 3 0, 9 0 M0 9 C0 3, 3 0, 9 0" stroke="#3B82F6" stroke-width="2" fill="none"></path></g><g transform="translate(265.81390469528907 175.18) rotate(0 85 6.875)"><text x="85" y="9.84521484375" font-family="Helvetica, sans-serif, Segoe UI Emoji" font-size="11px" fill="#1E293B" text-anchor="middle" style="white-space: pre;" direction="ltr" dominant-baseline="alphabetic">Treatment Record</text></g><g stroke-linecap="round" transform="translate(265.81390469528907 216) rotate(0 75 18)"><path d="M9 0 C38.31 0, 67.62 0, 141 0 C147 0, 150 3, 150 9 C150 13.27, 150 17.53, 150 27 C150 33, 147 36, 141 36 C97.72 36, 54.44 36, 9 36 C3 36, 0 33, 0 27 C0 22.45, 0 17.9, 0 9 C0 3, 3 0, 9 0" stroke="none" stroke-width="0" fill="#DBEAFE"></path><path d="M9 0 C55.16 0, 101.32 0, 141 0 M9 0 C44.83 0, 80.65 0, 141 0 M141 0 C147 0, 150 3, 150 9 M141 0 C147 0, 150 3, 150 9 M150 9 C150 12.82, 150 16.65, 150 27 M150 9 C150 13.72, 150 18.44, 150 27 M150 27 C150 33, 147 36, 141 36 M150 27 C150 33, 147 36, 141 36 M141 36 C107.53 36, 74.05 36, 9 36 M141 36 C108.94 36, 76.88 36, 9 36 M9 36 C3 36, 0 33, 0 27 M9 36 C3 36, 0 33, 0 27 M0 27 C0 22.67, 0 18.34, 0 9 M0 27 C0 21.28, 0 15.56, 0 9 M0 9 C0 3, 3 0, 9 0 M0 9 C0 3, 3 0, 9 0" stroke="#3B82F6" stroke-width="2" fill="none"></path></g><g transform="translate(265.81390469528907 227.18) rotate(0 75 6.875)"><text x="75" y="9.84521484375" font-family="Helvetica, sans-serif, Segoe UI Emoji" font-size="11px" fill="#1E293B" text-anchor="middle" style="white-space: pre;" direction="ltr" dominant-baseline="alphabetic">NRS Score</text></g><g stroke-linecap="round" transform="translate(265.81390469528907 268) rotate(0 95 18)"><path d="M9 0 C60.92 0, 112.83 0, 181 0 C187 0, 190 3, 190 9 C190 16.06, 190 23.11, 190 27 C190 33, 187 36, 181 36 C142.51 36, 104.02 36, 9 36 C3 36, 0 33, 0 27 C0 22.35, 0 17.71, 0 9 C0 3, 3 0, 9 0" stroke="none" stroke-width="0" fill="#DBEAFE"></path><path d="M9 0 C69.16 0, 129.31 0, 181 0 M9 0 C57.04 0, 105.09 0, 181 0 M181 0 C187 0, 190 3, 190 9 M181 0 C187 0, 190 3, 190 9 M190 9 C190 13.63, 190 18.27, 190 27 M190 9 C190 14.68, 190 20.36, 190 27 M190 27 C190 33, 187 36, 181 36 M190 27 C190 33, 187 36, 181 36 M181 36 C134.04 36, 87.09 36, 9 36 M181 36 C135.53 36, 90.05 36, 9 36 M9 36 C3 36, 0 33, 0 27 M9 36 C3 36, 0 33, 0 27 M0 27 C0 22.39, 0 17.79, 0 9 M0 27 C0 20.02, 0 13.04, 0 9 M0 9 C0 3, 3 0, 9 0 M0 9 C0 3, 3 0, 9 0" stroke="#3B82F6" stroke-width="2" fill="none"></path></g><g transform="translate(265.81390469528907 279.18) rotate(0 95 6.875)"><text x="95" y="9.84521484375" font-family="Helvetica, sans-serif, Segoe UI Emoji" font-size="11px" fill="#1E293B" text-anchor="middle" style="white-space: pre;" direction="ltr" dominant-baseline="alphabetic">PsOdisk Assessment</text></g><g stroke-linecap="round" transform="translate(300.81390469528907 314) rotate(0 75 15)"><path d="M7.5 0 C59.02 0, 110.54 0, 142.5 0 C147.5 0, 150 2.5, 150 7.5 C150 12.7, 150 17.91, 150 22.5 C150 27.5, 147.5 30, 142.5 30 C99.34 30, 56.18 30, 7.5 30 C2.5 30, 0 27.5, 0 22.5 C0 18.55, 0 14.6, 0 7.5 C0 2.5, 2.5 0, 7.5 0" stroke="none" stroke-width="0" fill="#DBEAFE"></path><path d="M7.5 0 C54.72 0, 101.95 0, 142.5 0 M7.5 0 C46.28 0, 85.05 0, 142.5 0 M142.5 0 C147.5 0, 150 2.5, 150 7.5 M142.5 0 C147.5 0, 150 2.5, 150 7.5 M150 7.5 C150 12.04, 150 16.57, 150 22.5 M150 7.5 C150 13.03, 150 18.57, 150 22.5 M150 22.5 C150 27.5, 147.5 30, 142.5 30 M150 22.5 C150 27.5, 147.5 30, 142.5 30 M142.5 30 C103.02 30, 63.55 30, 7.5 30 M142.5 30 C103.91 30, 65.32 30, 7.5 30 M7.5 30 C2.5 30, 0 27.5, 0 22.5 M7.5 30 C2.5 30, 0 27.5, 0 22.5 M0 22.5 C0 18.43, 0 14.36, 0 7.5 M0 22.5 C0 18.64, 0 14.77, 0 7.5 M0 7.5 C0 2.5, 2.5 0, 7.5 0 M0 7.5 C0 2.5, 2.5 0, 7.5 0" stroke="#60A5FA" stroke-width="2" fill="none"></path></g><g transform="translate(300.81390469528907 322.18) rotate(0 75 6.875)"><text x="75" y="9.84521484375" font-family="Helvetica, sans-serif, Segoe UI Emoji" font-size="11px" fill="#1E293B" text-anchor="middle" style="white-space: pre;" direction="ltr" dominant-baseline="alphabetic">↳ Domain Score</text></g><g stroke-linecap="round" transform="translate(265.81390469528907 360) rotate(0 85 18)"><path d="M9 0 C48.73 0, 88.47 0, 161 0 C167 0, 170 3, 170 9 C170 14.44, 170 19.87, 170 27 C170 33, 167 36, 161 36 C128.23 36, 95.46 36, 9 36 C3 36, 0 33, 0 27 C0 22.16, 0 17.32, 0 9 C0 3, 3 0, 9 0" stroke="none" stroke-width="0" fill="#DBEAFE"></path><path d="M9 0 C62.18 0, 115.36 0, 161 0 M9 0 C53.86 0, 98.73 0, 161 0 M161 0 C167 0, 170 3, 170 9 M161 0 C167 0, 170 3, 170 9 M170 9 C170 15.26, 170 21.51, 170 27 M170 9 C170 13, 170 17, 170 27 M170 27 C170 33, 167 36, 161 36 M170 27 C170 33, 167 36, 161 36 M161 36 C113.6 36, 66.2 36, 9 36 M161 36 C114.28 36, 67.57 36, 9 36 M9 36 C3 36, 0 33, 0 27 M9 36 C3 36, 0 33, 0 27 M0 27 C0 21.84, 0 16.68, 0 9 M0 27 C0 21.11, 0 15.22, 0 9 M0 9 C0 3, 3 0, 9 0 M0 9 C0 3, 3 0, 9 0" stroke="#3B82F6" stroke-width="2" fill="none"></path></g><g transform="translate(265.81390469528907 371.18) rotate(0 85 6.875)"><text x="85" y="9.84521484375" font-family="Helvetica, sans-serif, Segoe UI Emoji" font-size="11px" fill="#1E293B" text-anchor="middle" style="white-space: pre;" direction="ltr" dominant-baseline="alphabetic">Dose Confirmation</text></g><g stroke-linecap="round" transform="translate(265.81390469528907 412) rotate(0 85 18)"><path d="M9 0 C60.86 0, 112.72 0, 161 0 C167 0, 170 3, 170 9 C170 13.63, 170 18.25, 170 27 C170 33, 167 36, 161 36 C113.65 36, 66.3 36, 9 36 C3 36, 0 33, 0 27 C0 22.06, 0 17.13, 0 9 C0 3, 3 0, 9 0" stroke="none" stroke-width="0" fill="#DBEAFE"></path><path d="M9 0 C62.19 0, 115.38 0, 161 0 M9 0 C55.07 0, 101.13 0, 161 0 M161 0 C167 0, 170 3, 170 9 M161 0 C167 0, 170 3, 170 9 M170 9 C170 16.07, 170 23.13, 170 27 M170 9 C170 13.96, 170 18.92, 170 27 M170 27 C170 33, 167 36, 161 36 M170 27 C170 33, 167 36, 161 36 M161 36 C110.65 36, 60.3 36, 9 36 M161 36 C111.02 36, 61.03 36, 9 36 M9 36 C3 36, 0 33, 0 27 M9 36 C3 36, 0 33, 0 27 M0 27 C0 21.57, 0 16.13, 0 9 M0 27 C0 19.85, 0 12.7, 0 9 M0 9 C0 3, 3 0, 9 0 M0 9 C0 3, 3 0, 9 0" stroke="#3B82F6" stroke-width="2" fill="none"></path></g><g transform="translate(265.81390469528907 423.18) rotate(0 85 6.875)"><text x="85" y="9.84521484375" font-family="Helvetica, sans-serif, Segoe UI Emoji" font-size="11px" fill="#1E293B" text-anchor="middle" style="white-space: pre;" direction="ltr" dominant-baseline="alphabetic">DLQI Assessment</text></g><g stroke-linecap="round" transform="translate(265.81390469528907 464) rotate(0 75 18)"><path d="M9 0 C38.17 0, 67.34 0, 141 0 C147 0, 150 3, 150 9 C150 12.81, 150 16.63, 150 27 C150 33, 147 36, 141 36 C113.62 36, 86.24 36, 9 36 C3 36, 0 33, 0 27 C0 21.97, 0 16.93, 0 9 C0 3, 3 0, 9 0" stroke="none" stroke-width="0" fill="#DBEAFE"></path><path d="M9 0 C55.2 0, 101.4 0, 141 0 M9 0 C50.05 0, 91.1 0, 141 0 M141 0 C147 0, 150 3, 150 9 M141 0 C147 0, 150 3, 150 9 M150 9 C150 13.28, 150 17.55, 150 27 M150 9 C150 14.92, 150 20.84, 150 27 M150 27 C150 33, 147 36, 141 36 M150 27 C150 33, 147 36, 141 36 M141 36 C94.71 36, 48.43 36, 9 36 M141 36 C94.76 36, 48.52 36, 9 36 M9 36 C3 36, 0 33, 0 27 M9 36 C3 36, 0 33, 0 27 M0 27 C0 21.29, 0 15.58, 0 9 M0 27 C0 22.19, 0 17.39, 0 9 M0 9 C0 3, 3 0, 9 0 M0 9 C0 3, 3 0, 9 0" stroke="#3B82F6" stroke-width="2" fill="none"></path></g><g transform="translate(265.81390469528907 475.18) rotate(0 75 6.875)"><text x="75" y="9.84521484375" font-family="Helvetica, sans-serif, Segoe UI Emoji" font-size="11px" fill="#1E293B" text-anchor="middle" style="white-space: pre;" direction="ltr" dominant-baseline="alphabetic">Milestone</text></g><g stroke-linecap="round" transform="translate(470.81390469528907 360) rotate(0 75 18)"><path d="M9 0 C48.7 0, 88.4 0, 141 0 C147 0, 150 3, 150 9 C150 15.6, 150 22.21, 150 27 C150 33, 147 36, 141 36 C100.96 36, 60.92 36, 9 36 C3 36, 0 33, 0 27 C0 21.87, 0 16.74, 0 9 C0 3, 3 0, 9 0" stroke="none" stroke-width="0" fill="#DBEAFE"></path><path d="M9 0 C55.21 0, 101.42 0, 141 0 M9 0 C51.09 0, 93.19 0, 141 0 M141 0 C147 0, 150 3, 150 9 M141 0 C147 0, 150 3, 150 9 M150 9 C150 14.09, 150 19.17, 150 27 M150 9 C150 15.88, 150 22.76, 150 27 M150 27 C150 33, 147 36, 141 36 M150 27 C150 33, 147 36, 141 36 M141 36 C92.15 36, 43.3 36, 9 36 M141 36 C91.92 36, 42.84 36, 9 36 M9 36 C3 36, 0 33, 0 27 M9 36 C3 36, 0 33, 0 27 M0 27 C0 21.01, 0 15.03, 0 9 M0 27 C0 20.94, 0 14.87, 0 9 M0 9 C0 3, 3 0, 9 0 M0 9 C0 3, 3 0, 9 0" stroke="#3B82F6" stroke-width="2" fill="none"></path></g><g transform="translate(470.81390469528907 371.18) rotate(0 75 6.875)"><text x="75" y="9.84521484375" font-family="Helvetica, sans-serif, Segoe UI Emoji" font-size="11px" fill="#1E293B" text-anchor="middle" style="white-space: pre;" direction="ltr" dominant-baseline="alphabetic">Refill Request</text></g><g stroke-linecap="round" transform="translate(265.81390469528907 525) rotate(0 205 22)"><path d="M11 0 C158.65 0, 306.3 0, 399 0 C406.33 0, 410 3.67, 410 11 C410 18.08, 410 25.16, 410 33 C410 40.33, 406.33 44, 399 44 C244.1 44, 89.2 44, 11 44 C3.67 44, 0 40.33, 0 33 C0 26.61, 0 20.23, 0 11 C0 3.67, 3.67 0, 11 0" stroke="none" stroke-width="0" fill="#DBEAFE"></path><path d="M11 0 C146.85 0, 282.7 0, 399 0 M11 0 C137.8 0, 264.6 0, 399 0 M399 0 C406.33 0, 410 3.67, 410 11 M399 0 C406.33 0, 410 3.67, 410 11 M410 11 C410 18.21, 410 25.42, 410 33 M410 11 C410 16.18, 410 21.36, 410 33 M410 33 C410 40.33, 406.33 44, 399 44 M410 33 C410 40.33, 406.33 44, 399 44 M399 44 C247.88 44, 96.76 44, 11 44 M399 44 C246.4 44, 93.81 44, 11 44 M11 44 C3.67 44, 0 40.33, 0 33 M11 44 C3.67 44, 0 40.33, 0 33 M0 33 C0 25.35, 0 17.69, 0 11 M0 33 C0 28.45, 0 23.91, 0 11 M0 11 C0 3.67, 3.67 0, 11 0 M0 11 C0 3.67, 3.67 0, 11 0" stroke="#3B82F6" stroke-width="2" fill="none"></path></g><g transform="translate(265.81390469528907 540.18) rotate(0 205 6.875)"><text x="205" y="9.84521484375" font-family="Helvetica, sans-serif, Segoe UI Emoji" font-size="11px" fill="#1E293B" text-anchor="middle" style="white-space: pre;" direction="ltr" dominant-baseline="alphabetic">Navigator Alert</text></g><g stroke-linecap="round" transform="translate(740.813904695289 52) rotate(0 215 24)"><path d="M12 0 C117.69 0, 223.38 0, 418 0 C426 0, 430 4, 430 12 C430 18.65, 430 25.29, 430 36 C430 44, 426 48, 418 48 C298.17 48, 178.35 48, 12 48 C4 48, 0 44, 0 36 C0 28.9, 0 21.81, 0 12 C0 4, 4 0, 12 0" stroke="none" stroke-width="0" fill="#E9D5FF"></path><path d="M12 0 C154.18 0, 296.35 0, 418 0 M12 0 C147.9 0, 283.79 0, 418 0 M418 0 C426 0, 430 4, 430 12 M418 0 C426 0, 430 4, 430 12 M430 12 C430 20.94, 430 29.89, 430 36 M430 12 C430 18.93, 430 25.86, 430 36 M430 36 C430 44, 426 48, 418 48 M430 36 C430 44, 426 48, 418 48 M418 48 C333.19 48, 248.37 48, 12 48 M418 48 C330.8 48, 243.6 48, 12 48 M12 48 C4 48, 0 44, 0 36 M12 48 C4 48, 0 44, 0 36 M0 36 C0 27.28, 0 18.56, 0 12 M0 36 C0 29.36, 0 22.73, 0 12 M0 12 C0 4, 4 0, 12 0 M0 12 C0 4, 4 0, 12 0" stroke="#8B5CF6" stroke-width="2" fill="none"></path></g><g transform="translate(740.813904695289 69.18) rotate(0 215 6.875)"><text x="215" y="9.84521484375" font-family="Helvetica, sans-serif, Segoe UI Emoji" font-size="11px" fill="#1E293B" text-anchor="middle" style="white-space: pre;" direction="ltr" dominant-baseline="alphabetic">Unified Individual</text></g><g stroke-linecap="round" transform="translate(740.813904695289 130) rotate(0 67.5 18)"><path d="M9 0 C48.79 0, 88.58 0, 126 0 C132 0, 135 3, 135 9 C135 13.17, 135 17.35, 135 27 C135 33, 132 36, 126 36 C80.25 36, 34.5 36, 9 36 C3 36, 0 33, 0 27 C0 21.58, 0 16.16, 0 9 C0 3, 3 0, 9 0" stroke="none" stroke-width="0" fill="#E9D5FF"></path><path d="M9 0 C49.98 0, 90.96 0, 126 0 M9 0 C49.09 0, 89.18 0, 126 0 M126 0 C132 0, 135 3, 135 9 M126 0 C132 0, 135 3, 135 9 M135 9 C135 12.92, 135 16.84, 135 27 M135 9 C135 15.16, 135 21.31, 135 27 M135 27 C135 33, 132 36, 126 36 M135 27 C135 33, 132 36, 126 36 M126 36 C99.29 36, 72.57 36, 9 36 M126 36 C98.36 36, 70.72 36, 9 36 M9 36 C3 36, 0 33, 0 27 M9 36 C3 36, 0 33, 0 27 M0 27 C0 20.19, 0 13.37, 0 9 M0 27 C0 20.77, 0 14.53, 0 9 M0 9 C0 3, 3 0, 9 0 M0 9 C0 3, 3 0, 9 0" stroke="#8B5CF6" stroke-width="2" fill="none"></path></g><g transform="translate(740.813904695289 141.18) rotate(0 67.5 6.875)"><text x="67.5" y="9.84521484375" font-family="Helvetica, sans-serif, Segoe UI Emoji" font-size="11px" fill="#1E293B" text-anchor="middle" style="white-space: pre;" direction="ltr" dominant-baseline="alphabetic">NRS Score Stream</text></g><g stroke-linecap="round" transform="translate(895.813904695289 130) rotate(0 75 18)"><path d="M9 0 C38.03 0, 67.05 0, 141 0 C147 0, 150 3, 150 9 C150 15.96, 150 22.93, 150 27 C150 33, 147 36, 141 36 C103.12 36, 65.24 36, 9 36 C3 36, 0 33, 0 27 C0 21.48, 0 15.97, 0 9 C0 3, 3 0, 9 0" stroke="none" stroke-width="0" fill="#E9D5FF"></path><path d="M9 0 C55.24 0, 101.48 0, 141 0 M9 0 C55.27 0, 101.54 0, 141 0 M141 0 C147 0, 150 3, 150 9 M141 0 C147 0, 150 3, 150 9 M150 9 C150 13.73, 150 18.46, 150 27 M150 9 C150 16.12, 150 23.23, 150 27 M150 27 C150 33, 147 36, 141 36 M150 27 C150 33, 147 36, 141 36 M141 36 C108.3 36, 75.6 36, 9 36 M141 36 C106.98 36, 72.96 36, 9 36 M9 36 C3 36, 0 33, 0 27 M9 36 C3 36, 0 33, 0 27 M0 27 C0 19.91, 0 12.82, 0 9 M0 27 C0 23.11, 0 19.22, 0 9 M0 9 C0 3, 3 0, 9 0 M0 9 C0 3, 3 0, 9 0" stroke="#8B5CF6" stroke-width="2" fill="none"></path></g><g transform="translate(895.813904695289 141.18) rotate(0 75 6.875)"><text x="75" y="9.84521484375" font-family="Helvetica, sans-serif, Segoe UI Emoji" font-size="11px" fill="#1E293B" text-anchor="middle" style="white-space: pre;" direction="ltr" dominant-baseline="alphabetic">Assessment Stream</text></g><g stroke-linecap="round" transform="translate(1065.813904695289 130) rotate(0 62.5 18)"><path d="M9 0 C41.06 0, 73.13 0, 116 0 C122 0, 125 3, 125 9 C125 15.15, 125 21.31, 125 27 C125 33, 122 36, 116 36 C75.03 36, 34.07 36, 9 36 C3 36, 0 33, 0 27 C0 21.39, 0 15.78, 0 9 C0 3, 3 0, 9 0" stroke="none" stroke-width="0" fill="#E9D5FF"></path><path d="M9 0 C46.49 0, 83.98 0, 116 0 M9 0 C47.36 0, 85.71 0, 116 0 M116 0 C122 0, 125 3, 125 9 M116 0 C122 0, 125 3, 125 9 M125 9 C125 14.54, 125 20.08, 125 27 M125 9 C125 13.48, 125 17.95, 125 27 M125 27 C125 33, 122 36, 116 36 M125 27 C125 33, 122 36, 116 36 M116 36 C87.42 36, 58.83 36, 9 36 M116 36 C86.12 36, 56.25 36, 9 36 M9 36 C3 36, 0 33, 0 27 M9 36 C3 36, 0 33, 0 27 M0 27 C0 23.23, 0 19.47, 0 9 M0 27 C0 21.85, 0 16.7, 0 9 M0 9 C0 3, 3 0, 9 0 M0 9 C0 3, 3 0, 9 0" stroke="#8B5CF6" stroke-width="2" fill="none"></path></g><g transform="translate(1065.813904695289 141.18) rotate(0 62.5 6.875)"><text x="62.5" y="9.84521484375" font-family="Helvetica, sans-serif, Segoe UI Emoji" font-size="11px" fill="#1E293B" text-anchor="middle" style="white-space: pre;" direction="ltr" dominant-baseline="alphabetic">Adherence Stream</text></g><g stroke-linecap="round" transform="translate(740.813904695289 200) rotate(0 82.5 18)"><path d="M9 0 C64.78 0, 120.56 0, 156 0 C162 0, 165 3, 165 9 C165 14.34, 165 19.69, 165 27 C165 33, 162 36, 156 36 C115.02 36, 74.04 36, 9 36 C3 36, 0 33, 0 27 C0 21.29, 0 15.58, 0 9 C0 3, 3 0, 9 0" stroke="none" stroke-width="0" fill="#E9D5FF"></path><path d="M9 0 C60.51 0, 112.03 0, 156 0 M9 0 C62.86 0, 116.71 0, 156 0 M156 0 C162 0, 165 3, 165 9 M156 0 C162 0, 165 3, 165 9 M165 9 C165 15.35, 165 21.7, 165 27 M165 9 C165 14.44, 165 19.87, 165 27 M165 27 C165 33, 162 36, 156 36 M165 27 C165 33, 162 36, 156 36 M156 36 C113.88 36, 71.75 36, 9 36 M156 36 C111.8 36, 67.59 36, 9 36 M9 36 C3 36, 0 33, 0 27 M9 36 C3 36, 0 33, 0 27 M0 27 C0 22.96, 0 18.92, 0 9 M0 27 C0 20.59, 0 14.19, 0 9 M0 9 C0 3, 3 0, 9 0 M0 9 C0 3, 3 0, 9 0" stroke="#A78BFA" stroke-width="2" fill="none"></path></g><g transform="translate(740.813904695289 211.18) rotate(0 82.5 6.875)"><text x="82.5" y="9.84521484375" font-family="Helvetica, sans-serif, Segoe UI Emoji" font-size="11px" fill="#1E293B" text-anchor="middle" style="white-space: pre;" direction="ltr" dominant-baseline="alphabetic">NRS Trend (CI)</text></g><g stroke-linecap="round" transform="translate(930.813904695289 200) rotate(0 87.5 18)"><path d="M9 0 C49.7 0, 90.4 0, 166 0 C172 0, 175 3, 175 9 C175 13.53, 175 18.06, 175 27 C175 33, 172 36, 166 36 C107.18 36, 48.35 36, 9 36 C3 36, 0 33, 0 27 C0 21.19, 0 15.39, 0 9 C0 3, 3 0, 9 0" stroke="none" stroke-width="0" fill="#E9D5FF"></path><path d="M9 0 C64.03 0, 119.06 0, 166 0 M9 0 C67.76 0, 126.53 0, 166 0 M166 0 C172 0, 175 3, 175 9 M166 0 C172 0, 175 3, 175 9 M175 9 C175 16.16, 175 23.32, 175 27 M175 9 C175 15.39, 175 21.79, 175 27 M175 27 C175 33, 172 36, 166 36 M175 27 C175 33, 172 36, 166 36 M166 36 C117.96 36, 69.92 36, 9 36 M166 36 C115.42 36, 64.83 36, 9 36 M9 36 C3 36, 0 33, 0 27 M9 36 C3 36, 0 33, 0 27 M0 27 C0 22.68, 0 18.36, 0 9 M0 27 C0 22.94, 0 18.88, 0 9 M0 9 C0 3, 3 0, 9 0 M0 9 C0 3, 3 0, 9 0" stroke="#A78BFA" stroke-width="2" fill="none"></path></g><g transform="translate(930.813904695289 211.18) rotate(0 87.5 6.875)"><text x="87.5" y="9.84521484375" font-family="Helvetica, sans-serif, Segoe UI Emoji" font-size="11px" fill="#1E293B" text-anchor="middle" style="white-space: pre;" direction="ltr" dominant-baseline="alphabetic">Engagement Score (CI)</text></g><g stroke-linecap="round" transform="translate(740.813904695289 270) rotate(0 82.5 18)"><path d="M9 0 C58.84 0, 108.67 0, 156 0 C162 0, 165 3, 165 9 C165 12.72, 165 16.44, 165 27 C165 33, 162 36, 156 36 C116.22 36, 76.45 36, 9 36 C3 36, 0 33, 0 27 C0 21.1, 0 15.2, 0 9 C0 3, 3 0, 9 0" stroke="none" stroke-width="0" fill="#DDD6FE"></path><path d="M9 0 C60.53 0, 112.07 0, 156 0 M9 0 C65.18 0, 121.37 0, 156 0 M156 0 C162 0, 165 3, 165 9 M156 0 C162 0, 165 3, 165 9 M165 9 C165 13.37, 165 17.74, 165 27 M165 9 C165 12.75, 165 16.51, 165 27 M165 27 C165 33, 162 36, 156 36 M165 27 C165 33, 162 36, 156 36 M156 36 C108.17 36, 60.34 36, 9 36 M156 36 C105.48 36, 54.96 36, 9 36 M9 36 C3 36, 0 33, 0 27 M9 36 C3 36, 0 33, 0 27 M0 27 C0 22.41, 0 17.81, 0 9 M0 27 C0 21.68, 0 16.36, 0 9 M0 9 C0 3, 3 0, 9 0 M0 9 C0 3, 3 0, 9 0" stroke="#7C3AED" stroke-width="2" fill="none"></path></g><g transform="translate(740.813904695289 281.18) rotate(0 82.5 6.875)"><text x="82.5" y="9.84521484375" font-family="Helvetica, sans-serif, Segoe UI Emoji" font-size="11px" fill="#1E293B" text-anchor="middle" style="white-space: pre;" direction="ltr" dominant-baseline="alphabetic">High NRS Segment</text></g><g stroke-linecap="round" transform="translate(930.813904695289 270) rotate(0 82.5 18)"><path d="M9 0 C41.16 0, 73.33 0, 156 0 C162 0, 165 3, 165 9 C165 15.51, 165 22.02, 165 27 C165 33, 162 36, 156 36 C102.13 36, 48.25 36, 9 36 C3 36, 0 33, 0 27 C0 21, 0 15, 0 9 C0 3, 3 0, 9 0" stroke="none" stroke-width="0" fill="#DDD6FE"></path><path d="M9 0 C60.54 0, 112.08 0, 156 0 M9 0 C66.35 0, 123.69 0, 156 0 M156 0 C162 0, 165 3, 165 9 M156 0 C162 0, 165 3, 165 9 M165 9 C165 14.18, 165 19.36, 165 27 M165 9 C165 13.71, 165 18.43, 165 27 M165 27 C165 33, 162 36, 156 36 M165 27 C165 33, 162 36, 156 36 M156 36 C105.31 36, 54.63 36, 9 36 M156 36 C102.32 36, 48.64 36, 9 36 M9 36 C3 36, 0 33, 0 27 M9 36 C3 36, 0 33, 0 27 M0 27 C0 22.13, 0 17.26, 0 9 M0 27 C0 20.42, 0 13.85, 0 9 M0 9 C0 3, 3 0, 9 0 M0 9 C0 3, 3 0, 9 0" stroke="#7C3AED" stroke-width="2" fill="none"></path></g><g transform="translate(930.813904695289 281.18) rotate(0 82.5 6.875)"><text x="82.5" y="9.84521484375" font-family="Helvetica, sans-serif, Segoe UI Emoji" font-size="11px" fill="#1E293B" text-anchor="middle" style="white-space: pre;" direction="ltr" dominant-baseline="alphabetic">At-Risk Segment</text></g><g stroke-linecap="round" transform="translate(1240.813904695289 65) rotate(0 110 18)"><path d="M9 0 C69.31 0, 129.63 0, 211 0 C217 0, 220 3, 220 9 C220 14.7, 220 20.4, 220 27 C220 33, 217 36, 211 36 C158 36, 104.99 36, 9 36 C3 36, 0 33, 0 27 C0 20.9, 0 14.81, 0 9 C0 3, 3 0, 9 0" stroke="none" stroke-width="0" fill="#D1FAE5"></path><path d="M9 0 C79.84 0, 150.68 0, 211 0 M9 0 C89.4 0, 169.8 0, 211 0 M211 0 C217 0, 220 3, 220 9 M211 0 C217 0, 220 3, 220 9 M220 9 C220 14.99, 220 20.99, 220 27 M220 9 C220 14.67, 220 20.35, 220 27 M220 27 C220 33, 217 36, 211 36 M220 27 C220 33, 217 36, 211 36 M211 36 C137.43 36, 63.86 36, 9 36 M211 36 C132.9 36, 54.79 36, 9 36 M9 36 C3 36, 0 33, 0 27 M9 36 C3 36, 0 33, 0 27 M0 27 C0 21.85, 0 16.71, 0 9 M0 27 C0 22.77, 0 18.53, 0 9 M0 9 C0 3, 3 0, 9 0 M0 9 C0 3, 3 0, 9 0" stroke="#10B981" stroke-width="2" fill="none"></path></g><g transform="translate(1240.813904695289 76.18) rotate(0 110 6.875)"><text x="110" y="9.84521484375" font-family="Helvetica, sans-serif, Segoe UI Emoji" font-size="11px" fill="#1E293B" text-anchor="middle" style="white-space: pre;" direction="ltr" dominant-baseline="alphabetic">Content Item</text></g><g stroke-linecap="round" transform="translate(1240.813904695289 120) rotate(0 110 18)"><path d="M9 0 C85.43 0, 161.86 0, 211 0 C217 0, 220 3, 220 9 C220 13.89, 220 18.78, 220 27 C220 33, 217 36, 211 36 C138.62 36, 66.24 36, 9 36 C3 36, 0 33, 0 27 C0 20.81, 0 14.62, 0 9 C0 3, 3 0, 9 0" stroke="none" stroke-width="0" fill="#D1FAE5"></path><path d="M9 0 C79.85 0, 150.7 0, 211 0 M9 0 C50.6 0, 92.2 0, 211 0 M211 0 C217 0, 220 3, 220 9 M211 0 C217 0, 220 3, 220 9 M220 9 C220 15.8, 220 22.61, 220 27 M220 9 C220 15.63, 220 22.27, 220 27 M220 27 C220 33, 217 36, 211 36 M220 27 C220 33, 217 36, 211 36 M211 36 C133.51 36, 56.01 36, 9 36 M211 36 C168.96 36, 126.91 36, 9 36 M9 36 C3 36, 0 33, 0 27 M9 36 C3 36, 0 33, 0 27 M0 27 C0 21.58, 0 16.16, 0 9 M0 27 C0 21.51, 0 16.02, 0 9 M0 9 C0 3, 3 0, 9 0 M0 9 C0 3, 3 0, 9 0" stroke="#10B981" stroke-width="2" fill="none"></path></g><g transform="translate(1240.813904695289 131.18) rotate(0 110 6.875)"><text x="110" y="9.84521484375" font-family="Helvetica, sans-serif, Segoe UI Emoji" font-size="11px" fill="#1E293B" text-anchor="middle" style="white-space: pre;" direction="ltr" dominant-baseline="alphabetic">P13n Rule</text></g><g stroke-linecap="round" transform="translate(1240.813904695289 175) rotate(0 110 18)"><path d="M9 0 C61.15 0, 113.29 0, 211 0 C217 0, 220 3, 220 9 C220 13.08, 220 17.16, 220 27 C220 33, 217 36, 211 36 C159.65 36, 108.3 36, 9 36 C3 36, 0 33, 0 27 C0 20.71, 0 14.42, 0 9 C0 3, 3 0, 9 0" stroke="none" stroke-width="0" fill="#D1FAE5"></path><path d="M9 0 C79.86 0, 150.73 0, 211 0 M9 0 C52.2 0, 95.4 0, 211 0 M211 0 C217 0, 220 3, 220 9 M211 0 C217 0, 220 3, 220 9 M220 9 C220 13.01, 220 17.03, 220 27 M220 9 C220 12.99, 220 16.98, 220 27 M220 27 C220 33, 217 36, 211 36 M220 27 C220 33, 217 36, 211 36 M211 36 C169.98 36, 128.97 36, 9 36 M211 36 C164.62 36, 118.23 36, 9 36 M9 36 C3 36, 0 33, 0 27 M9 36 C3 36, 0 33, 0 27 M0 27 C0 21.3, 0 15.6, 0 9 M0 27 C0 20.25, 0 13.51, 0 9 M0 9 C0 3, 3 0, 9 0 M0 9 C0 3, 3 0, 9 0" stroke="#10B981" stroke-width="2" fill="none"></path></g><g transform="translate(1240.813904695289 186.18) rotate(0 110 6.875)"><text x="110" y="9.84521484375" font-family="Helvetica, sans-serif, Segoe UI Emoji" font-size="11px" fill="#1E293B" text-anchor="middle" style="white-space: pre;" direction="ltr" dominant-baseline="alphabetic">Recommendation</text></g><g stroke-linecap="round" transform="translate(1240.813904695289 465) rotate(0 110 18)"><path d="M9 0 C77.26 0, 145.52 0, 211 0 C217 0, 220 3, 220 9 C220 15.87, 220 22.74, 220 27 C220 33, 217 36, 211 36 C140.28 36, 69.55 36, 9 36 C3 36, 0 33, 0 27 C0 20.61, 0 14.23, 0 9 C0 3, 3 0, 9 0" stroke="none" stroke-width="0" fill="#FEF3C7"></path><path d="M9 0 C79.88 0, 150.76 0, 211 0 M9 0 C53.8 0, 98.59 0, 211 0 M211 0 C217 0, 220 3, 220 9 M211 0 C217 0, 220 3, 220 9 M220 9 C220 13.82, 220 18.65, 220 27 M220 9 C220 13.95, 220 18.9, 220 27 M220 27 C220 33, 217 36, 211 36 M220 27 C220 33, 217 36, 211 36 M211 36 C166.06 36, 121.13 36, 9 36 M211 36 C160.28 36, 109.55 36, 9 36 M9 36 C3 36, 0 33, 0 27 M9 36 C3 36, 0 33, 0 27 M0 27 C0 21.03, 0 15.05, 0 9 M0 27 C0 22.6, 0 18.19, 0 9 M0 9 C0 3, 3 0, 9 0 M0 9 C0 3, 3 0, 9 0" stroke="#F59E0B" stroke-width="2" fill="none"></path></g><g transform="translate(1240.813904695289 476.18) rotate(0 110 6.875)"><text x="110" y="9.84521484375" font-family="Helvetica, sans-serif, Segoe UI Emoji" font-size="11px" fill="#1E293B" text-anchor="middle" style="white-space: pre;" direction="ltr" dominant-baseline="alphabetic">Patient Support Agent</text></g><g stroke-linecap="round" transform="translate(1240.813904695289 520) rotate(0 110 18)"><path d="M9 0 C52.98 0, 96.96 0, 211 0 C217 0, 220 3, 220 9 C220 15.06, 220 21.12, 220 27 C220 33, 217 36, 211 36 C161.3 36, 111.6 36, 9 36 C3 36, 0 33, 0 27 C0 20.52, 0 14.04, 0 9 C0 3, 3 0, 9 0" stroke="none" stroke-width="0" fill="#FEF3C7"></path><path d="M9 0 C79.89 0, 150.78 0, 211 0 M9 0 C55.4 0, 101.79 0, 211 0 M211 0 C217 0, 220 3, 220 9 M211 0 C217 0, 220 3, 220 9 M220 9 C220 14.63, 220 20.27, 220 27 M220 9 C220 14.91, 220 20.82, 220 27 M220 27 C220 33, 217 36, 211 36 M220 27 C220 33, 217 36, 211 36 M211 36 C162.14 36, 113.28 36, 9 36 M211 36 C155.94 36, 100.87 36, 9 36 M9 36 C3 36, 0 33, 0 27 M9 36 C3 36, 0 33, 0 27 M0 27 C0 20.75, 0 14.5, 0 9 M0 27 C0 21.34, 0 15.68, 0 9 M0 9 C0 3, 3 0, 9 0 M0 9 C0 3, 3 0, 9 0" stroke="#F59E0B" stroke-width="2" fill="none"></path></g><g transform="translate(1240.813904695289 531.18) rotate(0 110 6.875)"><text x="110" y="9.84521484375" font-family="Helvetica, sans-serif, Segoe UI Emoji" font-size="11px" fill="#1E293B" text-anchor="middle" style="white-space: pre;" direction="ltr" dominant-baseline="alphabetic">Navigator Agent</text></g><g stroke-linecap="round" transform="translate(1240.813904695289 575) rotate(0 110 18)"><path d="M9 0 C69.09 0, 129.19 0, 211 0 C217 0, 220 3, 220 9 C220 14.25, 220 19.5, 220 27 C220 33, 217 36, 211 36 C141.93 36, 72.86 36, 9 36 C3 36, 0 33, 0 27 C0 20.42, 0 13.84, 0 9 C0 3, 3 0, 9 0" stroke="none" stroke-width="0" fill="#FEF3C7"></path><path d="M9 0 C79.9 0, 150.81 0, 211 0 M9 0 C56.99 0, 104.99 0, 211 0 M211 0 C217 0, 220 3, 220 9 M211 0 C217 0, 220 3, 220 9 M220 9 C220 15.45, 220 21.89, 220 27 M220 9 C220 15.87, 220 22.74, 220 27 M220 27 C220 33, 217 36, 211 36 M220 27 C220 33, 217 36, 211 36 M211 36 C158.22 36, 105.44 36, 9 36 M211 36 C151.6 36, 92.19 36, 9 36 M9 36 C3 36, 0 33, 0 27 M9 36 C3 36, 0 33, 0 27 M0 27 C0 20.47, 0 13.95, 0 9 M0 27 C0 20.08, 0 13.16, 0 9 M0 9 C0 3, 3 0, 9 0 M0 9 C0 3, 3 0, 9 0" stroke="#F59E0B" stroke-width="2" fill="none"></path></g><g transform="translate(1240.813904695289 586.18) rotate(0 110 6.875)"><text x="110" y="9.84521484375" font-family="Helvetica, sans-serif, Segoe UI Emoji" font-size="11px" fill="#1E293B" text-anchor="middle" style="white-space: pre;" direction="ltr" dominant-baseline="alphabetic">Proactive Outreach</text></g><g stroke-linecap="round"><g transform="translate(200.81390469528907 83) rotate(0 32.5 75.5)"><path d="M0 0 C4.5 0, 22.5 -25.17, 27 0 C31.5 25.17, 20.67 125.83, 27 151 C33.33 176.17, 58.67 151, 65 151 M0 0 C4.5 0, 22.5 -25.17, 27 0 C31.5 25.17, 20.67 125.83, 27 151 C33.33 176.17, 58.67 151, 65 151" stroke="#3B82F6" stroke-width="1.5" fill="none"></path></g><g transform="translate(200.81390469528907 83) rotate(0 32.5 75.5)"><path d="M51.77 164.64 C56.42 159.85, 61.06 155.06, 65 151 M51.77 164.64 C56.4 159.87, 61.02 155.11, 65 151" stroke="#3B82F6" stroke-width="1.5" fill="none"></path></g><g transform="translate(200.81390469528907 83) rotate(0 32.5 75.5)"><path d="M46.1 152.95 C52.74 152.26, 59.37 151.58, 65 151 M46.1 152.95 C52.7 152.27, 59.31 151.59, 65 151" stroke="#3B82F6" stroke-width="1.5" fill="none"></path></g></g><mask></mask><g transform="translate(199.81390469528907 225) rotate(0 28 9)"><text x="28" y="8.05517578125" font-family="Helvetica, sans-serif, Segoe UI Emoji" font-size="9px" fill="#3B82F6" text-anchor="middle" style="white-space: pre;" direction="ltr" dominant-baseline="alphabetic">REST API</text></g><g stroke-linecap="round"><g transform="translate(200.81390469528907 138) rotate(0 32.5 74.00000000000001)"><path d="M0 0 C5.33 0, 26.67 -24.67, 32 0 C37.33 24.67, 26.5 123.33, 32 148 C37.5 172.67, 59.5 148, 65 148 M0 0 C5.33 0, 26.67 -24.67, 32 0 C37.33 24.67, 26.5 123.33, 32 148 C37.5 172.67, 59.5 148, 65 148" stroke="#3B82F6" stroke-width="1.5" fill="none"></path></g><g transform="translate(200.81390469528907 138) rotate(0 32.5 74.00000000000001)"><path d="M54.11 160.4 C57.94 156.04, 61.76 151.69, 65 148 M54.11 160.4 C58.09 155.87, 62.07 151.34, 65 148" stroke="#3B82F6" stroke-width="1.5" fill="none"></path></g><g transform="translate(200.81390469528907 138) rotate(0 32.5 74.00000000000001)"><path d="M48.69 150.5 C54.42 149.62, 60.15 148.74, 65 148 M48.69 150.5 C54.65 149.58, 60.61 148.67, 65 148" stroke="#3B82F6" stroke-width="1.5" fill="none"></path></g></g><mask></mask><g stroke-linecap="round"><g transform="translate(200.81390469528907 193) rotate(0 32.5 92.5)"><path d="M0 0 C6.17 0, 30.83 -30.83, 37 0 C43.17 30.83, 32.33 154.17, 37 185 C41.67 215.83, 60.33 185, 65 185 M0 0 C6.17 0, 30.83 -30.83, 37 0 C43.17 30.83, 32.33 154.17, 37 185 C41.67 215.83, 60.33 185, 65 185" stroke="#3B82F6" stroke-width="1.5" fill="none"></path></g><g transform="translate(200.81390469528907 193) rotate(0 32.5 92.5)"><path d="M57.77 196.99 C60.31 192.78, 62.85 188.57, 65 185 M57.77 196.99 C60.47 192.51, 63.17 188.04, 65 185" stroke="#3B82F6" stroke-width="1.5" fill="none"></path></g><g transform="translate(200.81390469528907 193) rotate(0 32.5 92.5)"><path d="M51.75 189.53 C56.41 187.94, 61.06 186.35, 65 185 M51.75 189.53 C56.7 187.84, 61.64 186.15, 65 185" stroke="#3B82F6" stroke-width="1.5" fill="none"></path></g></g><mask></mask><g stroke-linecap="round"><g transform="translate(475.81390469528907 74) rotate(0 132.5 1)"><path d="M0 0 C38.33 0, 191.67 -0.33, 230 0 C268.33 0.33, 224.17 1.67, 230 2 C235.83 2.33, 259.17 2, 265 2 M0 0 C38.33 0, 191.67 -0.33, 230 0 C268.33 0.33, 224.17 1.67, 230 2 C235.83 2.33, 259.17 2, 265 2" stroke="#7C3AED" stroke-width="1.5" fill="none"></path></g><g transform="translate(475.81390469528907 74) rotate(0 132.5 1)"><path d="M248.6 8.1 C254.36 5.96, 260.12 3.81, 265 2 M248.6 8.1 C254.85 5.78, 261.1 3.45, 265 2" stroke="#7C3AED" stroke-width="1.5" fill="none"></path></g><g transform="translate(475.81390469528907 74) rotate(0 132.5 1)"><path d="M248.51 -3.87 C254.31 -1.81, 260.1 0.25, 265 2 M248.51 -3.87 C254.8 -1.63, 261.08 0.6, 265 2" stroke="#7C3AED" stroke-width="1.5" fill="none"></path></g></g><mask></mask><g transform="translate(639.313904695289 67) rotate(0 66.5 9)"><text x="66.5" y="8.05517578125" font-family="Helvetica, sans-serif, Segoe UI Emoji" font-size="9px" fill="#7C3AED" text-anchor="middle" style="white-space: pre;" direction="ltr" dominant-baseline="alphabetic">Identity Resolution</text></g><g stroke-linecap="round"><g transform="translate(415.81390469528907 234) rotate(0 162.5 -43)"><path d="M0 0 C54.17 -14.33, 270.83 -71.67, 325 -86 M0 0 C54.17 -14.33, 270.83 -71.67, 325 -86" stroke="#7C3AED" stroke-width="1.5" fill="none"></path></g><g transform="translate(415.81390469528907 234) rotate(0 162.5 -43)"><path d="M304.48 -71.72 C311.69 -76.74, 318.9 -81.76, 325 -86 M304.48 -71.72 C312.62 -77.39, 320.77 -83.06, 325 -86" stroke="#7C3AED" stroke-width="1.5" fill="none"></path></g><g transform="translate(415.81390469528907 234) rotate(0 162.5 -43)"><path d="M300.1 -88.26 C308.85 -87.46, 317.6 -86.67, 325 -86 M300.1 -88.26 C309.99 -87.36, 319.87 -86.47, 325 -86" stroke="#7C3AED" stroke-width="1.5" fill="none"></path></g></g><mask></mask><g transform="translate(546.813904695289 182) rotate(0 31.5 9)"><text x="31.5" y="8.05517578125" font-family="Helvetica, sans-serif, Segoe UI Emoji" font-size="9px" fill="#7C3AED" text-anchor="middle" style="white-space: pre;" direction="ltr" dominant-baseline="alphabetic">Streaming</text></g><g stroke-linecap="round"><g transform="translate(455.81390469528907 286) rotate(0 220 -69)"><path d="M0 0 C42.5 0, 212.5 23, 255 0 C297.5 -23, 224.17 -115, 255 -138 C285.83 -161, 409.17 -138, 440 -138 M0 0 C42.5 0, 212.5 23, 255 0 C297.5 -23, 224.17 -115, 255 -138 C285.83 -161, 409.17 -138, 440 -138" stroke="#7C3AED" stroke-width="1.5" fill="none"></path></g><g transform="translate(455.81390469528907 286) rotate(0 220 -69)"><path d="M415.83 -131.62 C424.33 -133.86, 432.83 -136.11, 440 -138 M415.83 -131.62 C420.97 -132.97, 426.11 -134.33, 440 -138" stroke="#7C3AED" stroke-width="1.5" fill="none"></path></g><g transform="translate(455.81390469528907 286) rotate(0 220 -69)"><path d="M417.38 -148.65 C425.33 -144.9, 433.29 -141.16, 440 -138 M417.38 -148.65 C422.19 -146.38, 427.01 -144.12, 440 -138" stroke="#7C3AED" stroke-width="1.5" fill="none"></path></g></g><mask></mask><g stroke-linecap="round"><g transform="translate(435.81390469528907 378) rotate(0 315 -114.99999999999997)"><path d="M0 0 C46.67 0, 233.33 38.33, 280 0 C326.67 -38.33, 221.67 -191.67, 280 -230 C338.33 -268.33, 571.67 -230, 630 -230 M0 0 C46.67 0, 233.33 38.33, 280 0 C326.67 -38.33, 221.67 -191.67, 280 -230 C338.33 -268.33, 571.67 -230, 630 -230" stroke="#7C3AED" stroke-width="1.5" fill="none"></path></g><g transform="translate(435.81390469528907 378) rotate(0 315 -114.99999999999997)"><path d="M605.9 -223.36 C614.37 -225.69, 622.85 -228.03, 630 -230 M605.9 -223.36 C611.22 -224.82, 616.54 -226.29, 630 -230" stroke="#7C3AED" stroke-width="1.5" fill="none"></path></g><g transform="translate(435.81390469528907 378) rotate(0 315 -114.99999999999997)"><path d="M607.27 -240.4 C615.26 -236.74, 623.26 -233.09, 630 -230 M607.27 -240.4 C612.28 -238.11, 617.3 -235.81, 630 -230" stroke="#7C3AED" stroke-width="1.5" fill="none"></path></g></g><mask></mask><g stroke-linecap="round"><g transform="translate(808.313904695289 166) rotate(0 7.5 17)"><path d="M0 0 C2.5 5.67, 12.5 28.33, 15 34 M0 0 C2.5 5.67, 12.5 28.33, 15 34" stroke="#A78BFA,#E9D5FF" stroke-width="1.5" fill="none"></path></g><g transform="translate(808.313904695289 166) rotate(0 7.5 17)"><path d="M2.14 20.59 C6.66 25.31, 11.19 30.02, 15 34 M2.14 20.59 C5.08 23.66, 8.02 26.72, 15 34" stroke="#A78BFA,#E9D5FF" stroke-width="1.5" fill="none"></path></g><g transform="translate(808.313904695289 166) rotate(0 7.5 17)"><path d="M13.77 15.46 C14.2 21.98, 14.63 28.5, 15 34 M13.77 15.46 C14.05 19.7, 14.33 23.94, 15 34" stroke="#A78BFA,#E9D5FF" stroke-width="1.5" fill="none"></path></g></g><mask></mask><g stroke-linecap="round"><g transform="translate(970.813904695289 166) rotate(0 23.75 17)"><path d="M0 0 C7.92 5.67, 39.58 28.33, 47.5 34 M0 0 C7.92 5.67, 39.58 28.33, 47.5 34" stroke="#A78BFA,#E9D5FF" stroke-width="1.5" fill="none"></path></g><g transform="translate(970.813904695289 166) rotate(0 23.75 17)"><path d="M23.42 27.28 C31.89 29.64, 40.36 32.01, 47.5 34 M23.42 27.28 C29.12 28.87, 34.81 30.46, 47.5 34" stroke="#A78BFA,#E9D5FF" stroke-width="1.5" fill="none"></path></g><g transform="translate(970.813904695289 166) rotate(0 23.75 17)"><path d="M33.37 13.37 C38.34 20.63, 43.31 27.89, 47.5 34 M33.37 13.37 C36.71 18.25, 40.06 23.13, 47.5 34" stroke="#A78BFA,#E9D5FF" stroke-width="1.5" fill="none"></path></g></g><mask></mask><g stroke-linecap="round"><g transform="translate(823.313904695289 236) rotate(0 0 17)"><path d="M0 0 C0 5.67, 0 28.33, 0 34 M0 0 C0 5.67, 0 28.33, 0 34" stroke="#A78BFA,#E9D5FF" stroke-width="1.5" fill="none"></path></g><g transform="translate(823.313904695289 236) rotate(0 0 17)"><path d="M-5.81 18.03 C-3.77 23.65, -1.72 29.27, 0 34 M-5.81 18.03 C-4.39 21.93, -2.97 25.83, 0 34" stroke="#A78BFA,#E9D5FF" stroke-width="1.5" fill="none"></path></g><g transform="translate(823.313904695289 236) rotate(0 0 17)"><path d="M5.81 18.03 C3.77 23.65, 1.72 29.27, 0 34 M5.81 18.03 C4.39 21.93, 2.97 25.83, 0 34" stroke="#A78BFA,#E9D5FF" stroke-width="1.5" fill="none"></path></g></g><mask></mask><g stroke-linecap="round"><g transform="translate(1018.313904695289 236) rotate(0 -2.5 17)"><path d="M0 0 C-0.83 5.67, -4.17 28.33, -5 34 M0 0 C-0.83 5.67, -4.17 28.33, -5 34" stroke="#A78BFA,#E9D5FF" stroke-width="1.5" fill="none"></path></g><g transform="translate(1018.313904695289 236) rotate(0 -2.5 17)"><path d="M-8.47 17.17 C-7.25 23.09, -6.03 29.02, -5 34 M-8.47 17.17 C-7.59 21.42, -6.72 25.66, -5 34" stroke="#A78BFA,#E9D5FF" stroke-width="1.5" fill="none"></path></g><g transform="translate(1018.313904695289 236) rotate(0 -2.5 17)"><path d="M3.16 18.88 C0.29 24.2, -2.58 29.52, -5 34 M3.16 18.88 C1.1 22.7, -0.96 26.51, -5 34" stroke="#A78BFA,#E9D5FF" stroke-width="1.5" fill="none"></path></g></g><mask></mask><g stroke-linecap="round"><g transform="translate(905.813904695289 288) rotate(0 167.5 -75.00000000000001)"><path d="M0 0 C50.83 0, 254.17 25, 305 0 C355.83 -25, 300 -125, 305 -150 C310 -175, 330 -150, 335 -150 M0 0 C50.83 0, 254.17 25, 305 0 C355.83 -25, 300 -125, 305 -150 C310 -175, 330 -150, 335 -150" stroke="#059669" stroke-width="1.5" fill="none"></path></g><g transform="translate(905.813904695289 288) rotate(0 167.5 -75.00000000000001)"><path d="M320.3 -152.97 C325.47 -151.92, 330.65 -150.88, 335 -150 M320.3 -152.97 C324.12 -152.19, 327.95 -151.42, 335 -150" stroke="#059669" stroke-width="1.5" fill="none"></path></g><g transform="translate(905.813904695289 288) rotate(0 167.5 -75.00000000000001)"><path d="M325.64 -161.72 C328.94 -157.6, 332.23 -153.47, 335 -150 M325.64 -161.72 C328.08 -158.67, 330.51 -155.62, 335 -150" stroke="#059669" stroke-width="1.5" fill="none"></path></g></g><mask></mask><g transform="translate(1165.313904695289 129) rotate(0 45.5 9)"><text x="45.5" y="8.05517578125" font-family="Helvetica, sans-serif, Segoe UI Emoji" font-size="9px" fill="#059669" text-anchor="middle" style="white-space: pre;" direction="ltr" dominant-baseline="alphabetic">Triggers P13n</text></g><g stroke-linecap="round"><g transform="translate(1095.813904695289 288) rotate(0 72.5 -73.63225579901999)"><path d="M0 0 C20 0, 100 24.33, 120 0 C140 -24.33, 115.83 -121, 120 -146 C124.17 -171, 140.83 -149.33, 145 -150 M0 0 C20 0, 100 24.33, 120 0 C140 -24.33, 115.83 -121, 120 -146 C124.17 -171, 140.83 -149.33, 145 -150" stroke="#059669" stroke-width="1.5" fill="none"></path></g><g transform="translate(1095.813904695289 288) rotate(0 72.5 -73.63225579901999)"><path d="M132.49 -151.97 C136.9 -151.28, 141.3 -150.58, 145 -150 M132.49 -151.97 C135.95 -151.42, 139.4 -150.88, 145 -150" stroke="#059669" stroke-width="1.5" fill="none"></path></g><g transform="translate(1095.813904695289 288) rotate(0 72.5 -73.63225579901999)"><path d="M136.69 -159.55 C139.61 -156.18, 142.54 -152.82, 145 -150 M136.69 -159.55 C138.98 -156.91, 141.28 -154.27, 145 -150" stroke="#059669" stroke-width="1.5" fill="none"></path></g></g><mask></mask><g stroke-linecap="round"><g transform="translate(1013.313904695289 306) rotate(0 -165.6022489309948 121.88355905941535)"><path d="M0 0 C-0.08 0.67, -0.42 -36.17, -0.5 4 C-0.58 44.17, 54 201.5, -0.5 241 C-55 280.5, -271.33 241, -327.5 241 C-383.67 241, -335.83 241, -337.5 241 M0 0 C-0.08 0.67, -0.42 -36.17, -0.5 4 C-0.58 44.17, 54 201.5, -0.5 241 C-55 280.5, -271.33 241, -327.5 241 C-383.67 241, -335.83 241, -337.5 241" stroke="#3B82F6" stroke-width="1.5" fill="none"></path></g><g transform="translate(1013.313904695289 306) rotate(0 -165.6022489309948 121.88355905941535)"><path d="M-342.2 242.71 C-340.54 242.11, -338.89 241.51, -337.5 241 M-342.2 242.71 C-340.86 242.22, -339.53 241.74, -337.5 241" stroke="#3B82F6" stroke-width="1.5" fill="none"></path></g><g transform="translate(1013.313904695289 306) rotate(0 -165.6022489309948 121.88355905941535)"><path d="M-342.2 239.29 C-340.54 239.89, -338.89 240.49, -337.5 241 M-342.2 239.29 C-340.86 239.78, -339.53 240.26, -337.5 241" stroke="#3B82F6" stroke-width="1.5" fill="none"></path></g></g><mask></mask><g transform="translate(967.313904695289 538) rotate(0 45.5 9)"><text x="45.5" y="8.05517578125" font-family="Helvetica, sans-serif, Segoe UI Emoji" font-size="9px" fill="#3B82F6" text-anchor="middle" style="white-space: pre;" direction="ltr" dominant-baseline="alphabetic">Creates Alert</text></g><g stroke-linecap="round"><g transform="translate(1350.813904695289 211) rotate(0 -541.2181774216576 278.9291623527229)"><path d="M0 0 C25 -3, 125 -109.5, 150 -18 C175 73.5, 380.83 454.5, 150 549 C-80.83 643.5, -1004.17 624.33, -1235 549 C-1465.83 473.67, -1249.17 173.17, -1235 97 C-1220.83 20.83, -1164.17 92.83, -1150 92 M0 0 C25 -3, 125 -109.5, 150 -18 C175 73.5, 380.83 454.5, 150 549 C-80.83 643.5, -1004.17 624.33, -1235 549 C-1465.83 473.67, -1249.17 173.17, -1235 97 C-1220.83 20.83, -1164.17 92.83, -1150 92" stroke="#059669" stroke-width="1.5" fill="none"></path></g><g transform="translate(1350.813904695289 211) rotate(0 -541.2181774216576 278.9291623527229)"><path d="M-1174.58 87.42 C-1165.92 89.03, -1157.26 90.65, -1150 92 M-1174.58 87.42 C-1167.21 88.79, -1159.84 90.17, -1150 92" stroke="#059669" stroke-width="1.5" fill="none"></path></g><g transform="translate(1350.813904695289 211) rotate(0 -541.2181774216576 278.9291623527229)"><path d="M-1165.88 72.69 C-1160.29 79.49, -1154.69 86.3, -1150 92 M-1165.88 72.69 C-1161.12 78.48, -1156.36 84.27, -1150 92" stroke="#059669" stroke-width="1.5" fill="none"></path></g></g><mask></mask><g transform="translate(66.81390469528905 751) rotate(0 49 9)"><text x="49" y="8.05517578125" font-family="Helvetica, sans-serif, Segoe UI Emoji" font-size="9px" fill="#059669" text-anchor="middle" style="white-space: pre;" direction="ltr" dominant-baseline="alphabetic">Ranked Content</text></g><g stroke-linecap="round"><g transform="translate(675.813904695289 547) rotate(0 270.4071307409894 7.5449209159307316)"><path d="M0 0 C1.67 3.83, -79.17 19.17, 10 23 C99.17 26.83, 447.5 28.33, 535 23 C622.5 17.67, 530 -3.67, 535 -9 C540 -14.33, 560 -9, 565 -9 M0 0 C1.67 3.83, -79.17 19.17, 10 23 C99.17 26.83, 447.5 28.33, 535 23 C622.5 17.67, 530 -3.67, 535 -9 C540 -14.33, 560 -9, 565 -9" stroke="#D97706" stroke-width="1.5" fill="none"></path></g><g transform="translate(675.813904695289 547) rotate(0 270.4071307409894 7.5449209159307316)"><path d="M550.36 -5.73 C555.52 -6.88, 560.68 -8.04, 565 -9 M550.36 -5.73 C554.98 -6.76, 559.6 -7.8, 565 -9" stroke="#D97706" stroke-width="1.5" fill="none"></path></g><g transform="translate(675.813904695289 547) rotate(0 270.4071307409894 7.5449209159307316)"><path d="M551.69 -15.91 C556.38 -13.47, 561.07 -11.04, 565 -9 M551.69 -15.91 C555.89 -13.73, 560.09 -11.55, 565 -9" stroke="#D97706" stroke-width="1.5" fill="none"></path></g></g><mask></mask><g transform="translate(1158.313904695289 561) rotate(0 52.5 9)"><text x="52.5" y="8.05517578125" font-family="Helvetica, sans-serif, Segoe UI Emoji" font-size="9px" fill="#D97706" text-anchor="middle" style="white-space: pre;" direction="ltr" dominant-baseline="alphabetic">Navigator Queue</text></g><g stroke-linecap="round"><g transform="translate(1350.813904695289 501) rotate(0 -541.2181774216576 0.4858005870391935)"><path d="M0 0 C25 -3, 125 -57.83, 150 -18 C175 21.83, 380.83 196.17, 150 239 C-80.83 281.83, -1004.17 320.17, -1235 239 C-1465.83 157.83, -1249.17 -166, -1235 -248 C-1220.83 -330, -1164.17 -252.17, -1150 -253 M0 0 C25 -3, 125 -57.83, 150 -18 C175 21.83, 380.83 196.17, 150 239 C-80.83 281.83, -1004.17 320.17, -1235 239 C-1465.83 157.83, -1249.17 -166, -1235 -248 C-1220.83 -330, -1164.17 -252.17, -1150 -253" stroke="#D97706" stroke-width="1.5" fill="none"></path></g><g transform="translate(1350.813904695289 501) rotate(0 -541.2181774216576 0.4858005870391935)"><path d="M-1174.39 -258.47 C-1165.79 -256.54, -1157.19 -254.61, -1150 -253 M-1174.39 -258.47 C-1166.31 -256.66, -1158.22 -254.84, -1150 -253" stroke="#D97706" stroke-width="1.5" fill="none"></path></g><g transform="translate(1350.813904695289 501) rotate(0 -541.2181774216576 0.4858005870391935)"><path d="M-1165.17 -272.87 C-1159.82 -265.87, -1154.47 -258.86, -1150 -253 M-1165.17 -272.87 C-1160.14 -266.29, -1155.11 -259.7, -1150 -253" stroke="#D97706" stroke-width="1.5" fill="none"></path></g></g><mask></mask><g transform="translate(66.81390469528905 731) rotate(0 49 9)"><text x="49" y="8.05517578125" font-family="Helvetica, sans-serif, Segoe UI Emoji" font-size="9px" fill="#D97706" text-anchor="middle" style="white-space: pre;" direction="ltr" dominant-baseline="alphabetic">SMS/Push/Email</text></g><g stroke-linecap="round"><g transform="translate(200.81390469528907 248) rotate(0 660.6941973904808 256.84516888334235)"><path d="M0 0 C0.83 0, 4.17 -83.67, 5 0 C5.83 83.67, -212.5 418.33, 5 502 C222.5 585.67, 1092.5 545.67, 1310 502 C1527.5 458.33, 1336.67 281.5, 1310 240 C1283.33 198.5, 1176.67 250.83, 1150 253 M0 0 C0.83 0, 4.17 -83.67, 5 0 C5.83 83.67, -212.5 418.33, 5 502 C222.5 585.67, 1092.5 545.67, 1310 502 C1527.5 458.33, 1336.67 281.5, 1310 240 C1283.33 198.5, 1176.67 250.83, 1150 253" stroke="#D97706" stroke-width="1.5" fill="none"></path></g><g transform="translate(200.81390469528907 248) rotate(0 660.6941973904808 256.84516888334235)"><path d="M1170.3 238.41 C1163.14 243.56, 1155.98 248.7, 1150 253 M1170.3 238.41 C1163.25 243.48, 1156.2 248.54, 1150 253" stroke="#D97706" stroke-width="1.5" fill="none"></path></g><g transform="translate(200.81390469528907 248) rotate(0 660.6941973904808 256.84516888334235)"><path d="M1174.93 254.87 C1166.14 254.21, 1157.35 253.55, 1150 253 M1174.93 254.87 C1166.27 254.22, 1157.61 253.57, 1150 253" stroke="#D97706" stroke-width="1.5" fill="none"></path></g></g><mask></mask><g transform="translate(1461.813904695289 741) rotate(0 49 9)"><text x="49" y="8.05517578125" font-family="Helvetica, sans-serif, Segoe UI Emoji" font-size="9px" fill="#D97706" text-anchor="middle" style="white-space: pre;" direction="ltr" dominant-baseline="alphabetic">Agentforce API</text></g></svg>